PathFileType	4	(X/Y/Z)	/Users/itak/Documents/Research/Walk-IL/dataset/trc/00034_00004.trc
DataRate	CameraRate	NumFrames	NumMarkers	Units	OrigDataRate	OrigDataStartFrame	OrigNumFrames
100.000000	100.000000	4	53	mm	100.000000	503	806
Frame#	Time	RPSI			LPSI			L3			STRN			T10			C7			CLAV			RBAK			LBAK			LSHO			LUPA			LAEL			LAOL			LWTS			LWPS			LFRA			LIFD			LHPS			LHTS			RSHO			RUPA			RAEL			RAOL			RWTS			RWPS			RFRA			RIFD			RHTS			RHPS			RBHD			LFHD			RFHD			LBHD			LHIP			RHIP			RASI			LASI			LKNE			LTHI			LANK			LTIP			LTOE			LMT1			LMT5			LHEE			RKNE			RTHI			RANK			RTIP			RTOE			RMT1			RMT5			RHEE			
		X1	Y1	Z1	X2	Y2	Z2	X3	Y3	Z3	X4	Y4	Z4	X5	Y5	Z5	X6	Y6	Z6	X7	Y7	Z7	X8	Y8	Z8	X9	Y9	Z9	X10	Y10	Z10	X11	Y11	Z11	X12	Y12	Z12	X13	Y13	Z13	X14	Y14	Z14	X15	Y15	Z15	X16	Y16	Z16	X17	Y17	Z17	X18	Y18	Z18	X19	Y19	Z19	X20	Y20	Z20	X21	Y21	Z21	X22	Y22	Z22	X23	Y23	Z23	X24	Y24	Z24	X25	Y25	Z25	X26	Y26	Z26	X27	Y27	Z27	X28	Y28	Z28	X29	Y29	Z29	X30	Y30	Z30	X31	Y31	Z31	X32	Y32	Z32	X33	Y33	Z33	X34	Y34	Z34	X35	Y35	Z35	X36	Y36	Z36	X37	Y37	Z37	X38	Y38	Z38	X39	Y39	Z39	X40	Y40	Z40	X41	Y41	Z41	X42	Y42	Z42	X43	Y43	Z43	X44	Y44	Z44	X45	Y45	Z45	X46	Y46	Z46	X47	Y47	Z47	X48	Y48	Z48	X49	Y49	Z49	X50	Y50	Z50	X51	Y51	Z51	X52	Y52	Z52	X53	Y53	Z53	

504	5.03	936.7308959960938	1053.832763671875	259.1470947265625	1097.651611328125	1050.397705078125	280.8702392578125	1030.11669921875	1118.126708984375	265.1671752929688	964.770751953125	1300.373168945312	484.2947082519531	1044.989624023438	1261.494873046875	246.6512298583984	1029.316650390625	1528.378051757812	305.4649047851562	974.436279296875	1427.57861328125	447.7525024414062	981.5487060546875	1388.912719726562	222.4309692382812	1128.697021484375	1494.264526367188	320.0186462402344	1159.426391601562	1502.52197265625	439.9571228027344	1261.93115234375	1395.76708984375	448.2896118164062	1330.8076171875	1194.951782226562	488.5081481933594	1273.490478515625	1154.17138671875	409.5201110839844	1269.456787109375	966.3875122070312	620.8901977539062	1345.400512695312	945.2824096679688	580.0608520507812	1345.798095703125	1090.363159179688	535.8263549804688	1261.101196289062	795.515380859375	698.427490234375	1338.029296875	869.7978515625	639.2337646484375	1279.73291015625	887.7714233398438	675.5015258789062	841.0536499023438	1495.93310546875	313.9790649414062	788.1543579101562	1429.221435546875	266.6869506835938	799.4236450195312	1181.490234375	170.8506622314453	883.2559204101562	1148.940795898438	213.3382873535156	767.7237548828125	898.0151977539062	229.9299011230469	747.7673950195312	905.0206298828125	139.1352844238281	781.9861450195312	1107.373168945312	156.0103912353516	783.5791015625	712.833251953125	209.1710662841797	744.19775390625	785.8330078125	222.0917205810547	732.2295532226562	797.4078369140625	148.0256958007812	1012.211242675781	1716.046508789062	446.8736877441406	810.1986694335938	1645.168579101562	491.1832275390625	880.8515014648438	1656.776489257812	557.94677734375	905.2406005859375	1693.82861328125	353.07421875	1191.303955078125	948.4638061523438	391.608642578125	817.7886352539062	939.8441772460938	362.4151611328125	878.1098022460938	977.6255493164062	469.8887634277344	1111.816162109375	994.4992065429688	499.67578125	1146.391845703125	505.1403198242188	439.3238525390625	1180.924194335938	642.788330078125	417.0153503417969	1172.1865234375	30.23248291015625	286.5137329101562	1180.64990234375	275.1863708496094	340.2196960449219	1062.92919921875	31.81623649597168	489.0047302246094	1060.983520507812	40.19764709472656	426.3608703613281	1169.828491210938	25.82794952392578	411.2869567871094	1136.370971679688	42.80590057373047	209.1210174560547	817.0039672851562	535.92138671875	534.1803588867188	805.015380859375	790.8489990234375	426.7334289550781	946.8327026367188	78.46334838867188	358.3175048828125	835.8385009765625	407.2007751464844	502.179443359375	887.0120849609375	46.39547729492188	581.9833374023438	940.5517578125	58.73290634155273	537.4312744140625	862.9811401367188	54.36901092529297	480.2531127929688	1011.525146484375	87.68267822265625	329.9998474121094	
505	5.04	937.1104736328125	1053.510986328125	264.9219360351562	1097.887329101562	1050.10888671875	287.4891357421875	1030.399047851562	1117.852783203125	271.755615234375	963.667724609375	1299.793212890625	490.5213928222656	1045.569458007812	1261.2431640625	253.5110473632812	1029.472412109375	1527.846069335938	312.4452819824219	973.582763671875	1427.042846679688	454.3283386230469	982.5103759765625	1388.662719726562	228.8202362060547	1128.865600585938	1493.9521484375	327.8273010253906	1158.513549804688	1502.020751953125	448.0577697753906	1260.912475585938	1395.34326171875	457.4343566894531	1329.458740234375	1194.752807617188	499.243896484375	1272.938354492188	1153.429565429688	419.8183898925781	1264.944458007812	968.301025390625	633.4668579101562	1341.271728515625	946.2158813476562	594.0567626953125	1343.184326171875	1090.607543945312	547.9904174804688	1254.300903320312	798.47900390625	713.0853881835938	1332.527465820312	871.5493774414062	654.100341796875	1273.8349609375	890.36376953125	689.2257690429688	841.2318725585938	1495.492065429688	319.478759765625	788.7581787109375	1428.778686523438	271.7314453125	801.0845336914062	1181.140502929688	175.7671661376953	884.5609741210938	1148.483520507812	218.8663177490234	769.1781005859375	897.5257568359375	234.4271240234375	749.8919067382812	904.5899658203125	143.4771423339844	783.83203125	1106.980102539062	160.7330627441406	785.248046875	712.439697265625	213.7572479248047	745.6435546875	785.4127197265625	226.3256683349609	734.3795166015625	796.9791870117188	152.2026824951172	1011.14306640625	1715.617553710938	453.9292602539062	808.7968139648438	1644.47119140625	496.5184020996094	879.00537109375	1656.07080078125	563.9152221679688	904.9539794921875	1693.36279296875	359.2821044921875	1190.916259765625	947.956787109375	398.4037780761719	817.5790405273438	939.5565185546875	367.4793090820312	877.2645874023438	977.1296997070312	475.3065490722656	1110.880859375	993.7902221679688	506.2481384277344	1146.224609375	504.4622192382812	442.0546569824219	1180.460693359375	642.3135375976562	421.3000183105469	1172.368774414062	30.4786376953125	286.553955078125	1180.79833984375	275.2396240234375	341.4830017089844	1062.922241210938	31.80514907836914	488.8700256347656	1060.905639648438	39.93492126464844	426.0816650390625	1169.872680664062	25.78714561462402	411.3015747070312	1136.662963867188	43.33539581298828	209.2176208496094	815.182861328125	536.5275268554688	539.9127197265625	803.8008422851562	790.691162109375	431.3460998535156	945.3414306640625	72.30677032470703	383.8121643066406	833.8764038085938	407.1690979003906	511.7986145019531	878.8978881835938	48.30694580078125	606.6934814453125	933.7510986328125	58.51075744628906	563.2898559570312	857.7394409179688	53.27522277832031	504.0078735351562	1010.976257324219	80.14151763916016	356.8801879882812	
506	5.05	937.3224487304688	1053.102416992188	270.72509765625	1097.976684570312	1049.774291992188	294.0600280761719	1030.548828125	1117.54248046875	278.2843933105469	962.4869384765625	1299.156982421875	496.755615234375	1045.99267578125	1260.945190429688	260.3295288085938	1029.4658203125	1527.261840820312	319.4468994140625	972.6168212890625	1426.4541015625	460.9377746582031	983.2743530273438	1388.35791015625	235.2692413330078	1128.880981445312	1493.603881835938	335.5836791992188	1157.491577148438	1501.473388671875	456.0884094238281	1259.753540039062	1394.840087890625	466.4680786132812	1327.923706054688	1194.452270507812	509.7879638671875	1272.232788085938	1152.619750976562	429.8526916503906	1260.210083007812	970.0631103515625	645.6326293945312	1336.921875	947.050048828125	607.6552734375	1340.366821289062	1090.744140625	559.87646484375	1247.26220703125	801.276611328125	727.1641235351562	1326.785766601562	873.1767578125	668.488525390625	1267.7333984375	892.794921875	702.4600219726562	841.2614135742188	1494.995971679688	325.0343933105469	789.2079467773438	1428.27294921875	276.85888671875	802.5757446289062	1180.682495117188	180.8452606201172	885.6575317382812	1147.827880859375	224.6043548583984	770.6098022460938	896.9403076171875	239.2587890625	751.8892211914062	904.017333984375	148.1465759277344	785.5134887695312	1106.464599609375	165.6586303710938	786.8840942382812	711.9638061523438	218.7652740478516	747.062744140625	784.9014892578125	230.9554748535156	736.43603515625	796.41748046875	156.7871246337891	1009.949340820312	1715.141723632812	460.962890625	807.27294921875	1643.716430664062	501.8565979003906	877.0623168945312	1655.311157226562	569.890625	904.537109375	1692.841430664062	365.508544921875	1190.422973632812	947.4240112304688	405.1278381347656	817.287841796875	939.1616821289062	372.5727844238281	876.361328125	976.5355834960938	480.6841430664062	1109.848510742188	993.0026245117188	512.7376098632812	1146.0400390625	503.822509765625	444.8165283203125	1179.946899414062	641.8340454101562	425.5886840820312	1172.592041015625	30.75406265258789	286.6359252929688	1180.940673828125	275.3106079101562	342.7770080566406	1062.884033203125	31.73641777038574	488.7105102539062	1060.841552734375	39.71242904663086	425.97412109375	1169.922607421875	25.73151206970215	411.3210754394531	1137.000610351562	43.91193771362305	209.3386535644531	813.5111694335938	536.8696899414062	545.3119506835938	802.5419311523438	790.3701171875	435.8727416992188	943.26123046875	66.64314270019531	409.150390625	832.0996704101562	407.0125427246094	521.1345825195312	870.771240234375	50.44397354125977	630.9195556640625	926.7952880859375	58.63903427124023	588.648193359375	852.2667236328125	52.39657592773438	527.5265502929688	1009.71875	73.25473785400391	383.58349609375	
507	5.06	937.3705444335938	1052.611083984375	276.5527038574219	1097.921997070312	1049.3896484375	300.5899047851562	1030.566162109375	1117.196899414062	284.751953125	961.2266845703125	1298.46728515625	503.0071716308594	1046.264282226562	1260.601806640625	267.1118774414062	1029.297241210938	1526.63818359375	326.4833374023438	971.5360717773438	1425.814086914062	467.5710144042969	983.8384399414062	1387.999633789062	241.7748260498047	1128.741333007812	1493.222778320312	343.2887268066406	1156.357543945312	1500.881469726562	464.0525512695312	1258.453247070312	1394.26611328125	475.3959045410156	1326.200073242188	1194.05712890625	520.1404418945312	1271.374877929688	1151.758178710938	439.6275939941406	1255.264892578125	971.6712646484375	657.3839721679688	1332.370361328125	947.7803955078125	620.8485107421875	1337.355712890625	1090.785766601562	571.4740600585938	1240.010864257812	803.8965454101562	740.6566772460938	1320.830444335938	874.6729736328125	682.3895263671875	1261.446899414062	895.0540771484375	715.1969604492188	841.1348876953125	1494.442749023438	330.6510314941406	789.4963989257812	1427.699951171875	282.0722961425781	803.8878784179688	1180.116943359375	186.0840911865234	886.5361938476562	1146.9873046875	230.5567779541016	772.0116577148438	896.2642822265625	244.4205932617188	753.74560546875	903.3107299804688	153.1426849365234	787.0176391601562	1105.83251953125	170.7855987548828	788.5029907226562	711.3993530273438	224.1938171386719	748.461669921875	784.2931518554688	235.9817504882812	738.3894653320312	795.7282104492188	161.7735900878906	1008.634338378906	1714.616455078125	467.9762878417969	805.623291015625	1642.90673828125	507.2033386230469	875.024169921875	1654.504272460938	575.8778076171875	903.9892578125	1692.266967773438	371.7529296875	1189.822143554688	946.8706665039062	411.7893676757812	816.9198608398438	938.6632080078125	377.7007751464844	875.4049072265625	975.8485107421875	486.0496215820312	1108.722534179688	992.13330078125	519.1465454101562	1145.838745117188	503.2259826660156	447.5888061523438	1179.391723632812	641.3568115234375	429.866455078125	1172.8447265625	31.0615234375	286.7662963867188	1181.073364257812	275.4106750488281	344.0906372070312	1062.817626953125	31.6129093170166	488.5375366210938	1060.825439453125	39.58539581298828	426.0610656738281	1169.977294921875	25.66373252868652	411.3479614257812	1137.382690429688	44.52840805053711	209.4838256835938	811.9951171875	536.9454956054688	550.3901977539062	801.2536010742188	789.8955688476562	440.3370361328125	940.5872802734375	61.48175430297852	434.2550659179688	830.4957275390625	406.7304077148438	530.1859741210938	862.7186279296875	52.82686614990234	654.6658325195312	919.75732421875	59.13813781738281	613.4960327148438	846.6104125976562	51.74863433837891	550.818359375	1007.7236328125	67.00231170654297	410.001220703125	
